<?xml version="1.0" encoding="UTF-8"?>
<svg xmlns="http://www.w3.org/2000/svg" xmlns:xlink="http://www.w3.org/1999/xlink" width="159px" height="30px" viewBox="0 0 754 87" version="1.1">
<g id="surface1">
<path style=" stroke:none;fill-rule:nonzero;fill:rgb(87.843138%,47.843137%,37.254903%);fill-opacity:1;" d="M 256.84375 57.585938 L 248.835938 57.585938 L 248.835938 17.519531 L 272.863281 17.519531 L 272.863281 25.53125 L 280.875 25.53125 L 280.875 33.546875 L 272.863281 33.546875 L 272.863281 49.574219 L 280.875 49.574219 L 280.875 57.585938 L 272.863281 57.585938 L 272.863281 49.574219 L 264.855469 49.574219 L 264.855469 41.558594 L 256.84375 41.558594 Z M 256.84375 25.53125 L 256.84375 33.546875 L 272.546875 33.546875 L 272.546875 25.53125 Z M 320.925781 57.585938 L 304.90625 57.585938 L 304.90625 49.574219 L 296.898438 49.574219 L 296.898438 25.53125 L 304.90625 25.53125 L 304.90625 17.519531 L 320.925781 17.519531 L 320.925781 25.53125 L 328.9375 25.53125 L 328.9375 49.574219 L 320.925781 49.574219 Z M 304.90625 25.855469 L 304.90625 49.253906 L 320.925781 49.253906 L 320.925781 25.855469 Z M 368.984375 57.585938 L 344.957031 57.585938 L 344.957031 17.519531 L 352.964844 17.519531 L 352.964844 49.574219 L 368.984375 49.574219 Z M 368.984375 57.585938 "/>
<path style=" stroke:none;fill-rule:nonzero;fill:rgb(0%,0%,0%);fill-opacity:1;" d="M 393.019531 57.585938 L 385.007812 57.585938 L 385.007812 17.519531 L 393.019531 17.519531 L 393.019531 25.53125 L 401.027344 25.53125 L 401.027344 33.546875 L 409.039062 33.546875 L 409.039062 41.558594 L 417.046875 41.558594 L 417.046875 17.519531 L 425.058594 17.519531 L 425.058594 57.585938 L 417.046875 57.585938 L 417.046875 49.574219 L 409.039062 49.574219 L 409.039062 41.558594 L 401.027344 41.558594 L 401.027344 33.546875 L 393.019531 33.546875 Z M 465.109375 57.585938 L 441.078125 57.585938 L 441.078125 17.519531 L 465.109375 17.519531 L 465.109375 25.53125 L 449.085938 25.53125 L 449.085938 33.546875 L 465.109375 33.546875 L 465.109375 41.558594 L 449.085938 41.558594 L 449.085938 49.574219 L 465.109375 49.574219 Z M 505.164062 57.585938 L 481.132812 57.585938 L 481.132812 17.519531 L 489.144531 17.519531 L 489.144531 49.574219 L 505.164062 49.574219 Z M 505.164062 57.585938 "/>
<path style=" stroke:none;fill-rule:nonzero;fill:rgb(23.921569%,25.098041%,35.686275%);fill-opacity:1;" d="M 240.6875 83.203125 L 239.902344 83.203125 L 239.902344 80.671875 L 237.933594 76.796875 L 238.753906 76.796875 L 240.324219 79.902344 L 241.742188 76.796875 L 242.5 76.796875 L 240.6875 80.671875 Z M 248.503906 83.308594 C 248.015625 83.308594 247.601562 83.183594 247.261719 82.925781 C 246.917969 82.671875 246.65625 82.300781 246.476562 81.8125 C 246.300781 81.320312 246.214844 80.726562 246.214844 80.03125 C 246.214844 79.351562 246.300781 78.765625 246.476562 78.277344 C 246.65625 77.789062 246.917969 77.410156 247.261719 77.148438 C 247.601562 76.882812 248.015625 76.75 248.503906 76.75 C 248.996094 76.75 249.410156 76.882812 249.75 77.148438 C 250.089844 77.410156 250.347656 77.789062 250.527344 78.277344 C 250.703125 78.765625 250.792969 79.351562 250.792969 80.03125 C 250.792969 80.726562 250.703125 81.320312 250.527344 81.8125 C 250.347656 82.300781 250.089844 82.671875 249.75 82.925781 C 249.410156 83.183594 248.996094 83.308594 248.503906 83.308594 M 248.503906 82.683594 C 248.832031 82.683594 249.113281 82.578125 249.339844 82.375 C 249.566406 82.167969 249.742188 81.867188 249.867188 81.472656 C 249.992188 81.078125 250.054688 80.597656 250.054688 80.03125 C 250.054688 79.488281 249.992188 79.019531 249.867188 78.625 C 249.742188 78.230469 249.566406 77.925781 249.339844 77.707031 C 249.113281 77.488281 248.832031 77.378906 248.503906 77.378906 C 248.179688 77.378906 247.902344 77.488281 247.671875 77.707031 C 247.4375 77.925781 247.257812 78.230469 247.136719 78.625 C 247.015625 79.019531 246.953125 79.488281 246.953125 80.03125 C 246.953125 80.597656 247.015625 81.078125 247.136719 81.472656 C 247.257812 81.867188 247.4375 82.167969 247.671875 82.375 C 247.902344 82.578125 248.179688 82.683594 248.503906 82.683594 M 256.804688 83.308594 C 256.121094 83.308594 255.605469 83.105469 255.257812 82.695312 C 254.914062 82.289062 254.738281 81.71875 254.738281 80.984375 L 254.738281 76.789062 L 255.539062 76.789062 L 255.539062 76.863281 C 255.5 76.90625 255.472656 76.949219 255.464844 76.996094 C 255.449219 77.042969 255.445312 77.128906 255.445312 77.246094 L 255.445312 80.996094 C 255.445312 81.515625 255.546875 81.929688 255.746094 82.238281 C 255.949219 82.546875 256.304688 82.703125 256.8125 82.703125 C 257.328125 82.703125 257.683594 82.546875 257.890625 82.238281 C 258.097656 81.929688 258.199219 81.507812 258.199219 80.964844 L 258.199219 76.789062 L 258.886719 76.789062 L 258.886719 80.953125 C 258.886719 81.496094 258.800781 81.941406 258.628906 82.285156 C 258.460938 82.632812 258.21875 82.886719 257.90625 83.054688 C 257.59375 83.222656 257.226562 83.308594 256.804688 83.308594 M 263.820312 83.203125 L 263.089844 83.203125 L 263.089844 76.796875 L 264.976562 76.796875 C 265.488281 76.796875 265.898438 76.871094 266.207031 77.023438 C 266.519531 77.175781 266.746094 77.386719 266.890625 77.660156 C 267.035156 77.933594 267.105469 78.257812 267.105469 78.625 C 267.105469 78.867188 267.050781 79.105469 266.945312 79.34375 C 266.839844 79.585938 266.691406 79.796875 266.496094 79.972656 C 266.300781 80.152344 266.066406 80.273438 265.800781 80.34375 L 267.28125 83.203125 L 266.480469 83.203125 L 265.0625 80.371094 L 263.820312 80.371094 Z M 263.820312 77.476562 L 263.820312 79.738281 L 265.0625 79.738281 C 265.519531 79.738281 265.855469 79.636719 266.058594 79.433594 C 266.265625 79.230469 266.367188 78.960938 266.367188 78.625 C 266.367188 78.414062 266.320312 78.21875 266.230469 78.042969 C 266.144531 77.871094 266.003906 77.730469 265.808594 77.628906 C 265.621094 77.527344 265.371094 77.476562 265.0625 77.476562 Z M 281.960938 83.203125 L 281.230469 83.203125 L 281.230469 77.4375 L 279.414062 77.4375 L 279.414062 76.785156 L 283.851562 76.785156 L 283.851562 77.4375 L 281.960938 77.4375 Z M 288.695312 83.203125 L 287.964844 83.203125 L 287.964844 76.796875 L 289.851562 76.796875 C 290.363281 76.796875 290.769531 76.871094 291.082031 77.023438 C 291.394531 77.175781 291.621094 77.386719 291.765625 77.660156 C 291.910156 77.933594 291.980469 78.257812 291.980469 78.625 C 291.980469 78.867188 291.929688 79.105469 291.824219 79.34375 C 291.714844 79.585938 291.566406 79.796875 291.371094 79.972656 C 291.171875 80.152344 290.941406 80.273438 290.675781 80.34375 L 292.15625 83.203125 L 291.355469 83.203125 L 289.9375 80.371094 L 288.695312 80.371094 Z M 288.695312 77.476562 L 288.695312 79.738281 L 289.9375 79.738281 C 290.394531 79.738281 290.726562 79.636719 290.933594 79.433594 C 291.140625 79.230469 291.242188 78.960938 291.242188 78.625 C 291.242188 78.414062 291.199219 78.21875 291.109375 78.042969 C 291.019531 77.871094 290.875 77.730469 290.683594 77.628906 C 290.496094 77.527344 290.246094 77.476562 289.9375 77.476562 Z M 298.25 83.308594 C 297.566406 83.308594 297.050781 83.105469 296.707031 82.695312 C 296.359375 82.289062 296.1875 81.71875 296.1875 80.984375 L 296.1875 76.789062 L 296.988281 76.789062 L 296.988281 76.863281 C 296.949219 76.90625 296.921875 76.949219 296.910156 76.996094 C 296.902344 77.042969 296.898438 77.128906 296.898438 77.246094 L 296.898438 80.996094 C 296.898438 81.515625 296.996094 81.929688 297.199219 82.238281 C 297.402344 82.546875 297.757812 82.703125 298.261719 82.703125 C 298.777344 82.703125 299.136719 82.546875 299.34375 82.238281 C 299.546875 81.929688 299.652344 81.507812 299.652344 80.964844 L 299.652344 76.789062 L 300.335938 76.789062 L 300.335938 80.953125 C 300.335938 81.496094 300.25 81.941406 300.082031 82.285156 C 299.910156 82.632812 299.667969 82.886719 299.355469 83.054688 C 299.042969 83.222656 298.675781 83.308594 298.25 83.308594 M 306.5 83.300781 C 306.082031 83.300781 305.707031 83.230469 305.378906 83.09375 C 305.046875 82.957031 304.753906 82.753906 304.5 82.488281 L 304.871094 81.835938 L 304.910156 81.746094 L 304.984375 81.785156 C 304.996094 81.835938 305.011719 81.886719 305.03125 81.945312 C 305.050781 82.003906 305.101562 82.074219 305.179688 82.160156 C 305.355469 82.308594 305.5625 82.429688 305.800781 82.515625 C 306.035156 82.605469 306.300781 82.648438 306.601562 82.648438 C 306.792969 82.648438 306.972656 82.617188 307.136719 82.558594 C 307.296875 82.503906 307.433594 82.425781 307.554688 82.324219 C 307.671875 82.226562 307.765625 82.113281 307.828125 81.976562 C 307.894531 81.84375 307.925781 81.703125 307.925781 81.550781 C 307.925781 81.433594 307.917969 81.328125 307.894531 81.234375 C 307.871094 81.136719 307.828125 81.046875 307.761719 80.96875 C 307.695312 80.890625 307.609375 80.8125 307.496094 80.734375 C 307.390625 80.65625 307.25 80.570312 307.078125 80.480469 C 306.90625 80.390625 306.703125 80.296875 306.460938 80.191406 C 306.015625 80.023438 305.667969 79.835938 305.410156 79.632812 C 305.152344 79.429688 304.96875 79.21875 304.867188 78.992188 C 304.757812 78.765625 304.703125 78.53125 304.703125 78.292969 C 304.703125 77.976562 304.78125 77.699219 304.9375 77.464844 C 305.097656 77.226562 305.324219 77.042969 305.613281 76.90625 C 305.902344 76.777344 306.25 76.710938 306.65625 76.710938 C 306.886719 76.710938 307.113281 76.742188 307.332031 76.804688 C 307.546875 76.871094 307.746094 76.960938 307.933594 77.078125 C 308.121094 77.195312 308.289062 77.339844 308.429688 77.507812 L 308.03125 78.046875 L 307.972656 78.125 L 307.90625 78.085938 C 307.902344 78.03125 307.886719 77.976562 307.867188 77.921875 C 307.847656 77.867188 307.796875 77.800781 307.722656 77.714844 C 307.558594 77.558594 307.382812 77.449219 307.199219 77.390625 C 307.015625 77.332031 306.796875 77.304688 306.542969 77.304688 C 306.371094 77.304688 306.21875 77.328125 306.082031 77.378906 C 305.949219 77.425781 305.835938 77.496094 305.742188 77.582031 C 305.644531 77.671875 305.574219 77.773438 305.519531 77.886719 C 305.46875 78 305.441406 78.117188 305.441406 78.238281 C 305.441406 78.355469 305.457031 78.464844 305.488281 78.5625 C 305.511719 78.65625 305.558594 78.746094 305.628906 78.835938 C 305.695312 78.925781 305.792969 79.015625 305.914062 79.105469 C 306.03125 79.191406 306.179688 79.28125 306.363281 79.371094 C 306.542969 79.460938 306.765625 79.558594 307.027344 79.65625 C 307.339844 79.789062 307.601562 79.917969 307.808594 80.042969 C 308.019531 80.171875 308.183594 80.304688 308.304688 80.445312 C 308.425781 80.585938 308.511719 80.738281 308.5625 80.902344 C 308.613281 81.066406 308.636719 81.25 308.636719 81.449219 C 308.636719 81.742188 308.5625 82.03125 308.417969 82.316406 C 308.269531 82.597656 308.039062 82.835938 307.722656 83.019531 C 307.410156 83.207031 307 83.300781 306.5 83.300781 M 315.117188 83.203125 L 314.390625 83.203125 L 314.390625 77.4375 L 312.574219 77.4375 L 312.574219 76.785156 L 317.011719 76.785156 L 317.011719 77.4375 L 315.117188 77.4375 Z M 325.042969 83.203125 L 321.148438 83.203125 L 321.148438 76.785156 L 325.074219 76.785156 L 325.074219 77.421875 L 321.828125 77.421875 L 321.828125 79.53125 L 324.511719 79.53125 L 324.511719 80.1875 L 321.828125 80.1875 L 321.828125 82.558594 L 325.042969 82.558594 Z M 330.757812 83.210938 L 329.386719 83.210938 L 329.386719 76.796875 L 330.878906 76.796875 C 331.246094 76.796875 331.558594 76.828125 331.8125 76.898438 C 332.066406 76.964844 332.285156 77.0625 332.460938 77.191406 C 332.640625 77.320312 332.796875 77.480469 332.933594 77.671875 C 333.078125 77.863281 333.195312 78.078125 333.285156 78.316406 C 333.378906 78.558594 333.449219 78.820312 333.492188 79.105469 C 333.539062 79.390625 333.558594 79.699219 333.558594 80.035156 C 333.539062 80.527344 333.476562 80.96875 333.363281 81.359375 C 333.253906 81.75 333.089844 82.082031 332.871094 82.355469 C 332.652344 82.628906 332.371094 82.839844 332.023438 82.992188 C 331.679688 83.136719 331.257812 83.210938 330.757812 83.210938 M 330.066406 77.402344 L 330.066406 82.644531 L 330.722656 82.644531 C 331.214844 82.644531 331.617188 82.542969 331.929688 82.34375 C 332.246094 82.144531 332.476562 81.855469 332.625 81.472656 C 332.777344 81.089844 332.847656 80.621094 332.839844 80.074219 C 332.839844 79.511719 332.773438 79.035156 332.636719 78.636719 C 332.5 78.238281 332.285156 77.933594 331.996094 77.71875 C 331.703125 77.507812 331.316406 77.402344 330.835938 77.402344 Z M 346.757812 83.203125 L 346.019531 83.203125 L 346.019531 76.796875 L 348.074219 76.796875 C 348.554688 76.796875 348.941406 76.878906 349.234375 77.042969 C 349.53125 77.207031 349.75 77.425781 349.886719 77.695312 C 350.027344 77.964844 350.097656 78.269531 350.097656 78.605469 C 350.097656 78.855469 350.0625 79.082031 349.988281 79.296875 C 349.910156 79.507812 349.792969 79.695312 349.628906 79.859375 C 349.46875 80.023438 349.265625 80.152344 349.019531 80.242188 C 348.773438 80.328125 348.476562 80.371094 348.128906 80.371094 L 346.757812 80.371094 Z M 346.757812 77.476562 L 346.757812 79.738281 L 348.042969 79.738281 C 348.359375 79.738281 348.609375 79.691406 348.800781 79.597656 C 348.996094 79.503906 349.136719 79.375 349.222656 79.207031 C 349.316406 79.039062 349.359375 78.84375 349.359375 78.625 C 349.359375 78.414062 349.316406 78.222656 349.222656 78.054688 C 349.136719 77.878906 348.996094 77.738281 348.800781 77.632812 C 348.609375 77.527344 348.359375 77.476562 348.054688 77.476562 Z M 357.207031 80.769531 L 357.371094 81.320312 L 355.050781 81.320312 L 355.191406 80.769531 Z M 357.933594 83.195312 L 356.261719 78.320312 L 354.574219 83.195312 L 353.871094 83.195312 L 356.234375 76.679688 L 356.3125 76.679688 L 358.675781 83.195312 Z M 363.300781 83.203125 L 362.574219 83.203125 L 362.574219 76.796875 L 364.464844 76.796875 C 364.972656 76.796875 365.378906 76.871094 365.695312 77.023438 C 366.003906 77.175781 366.230469 77.386719 366.375 77.660156 C 366.515625 77.933594 366.589844 78.257812 366.589844 78.625 C 366.589844 78.867188 366.535156 79.105469 366.433594 79.34375 C 366.324219 79.585938 366.171875 79.796875 365.976562 79.972656 C 365.785156 80.152344 365.554688 80.273438 365.289062 80.34375 L 366.765625 83.203125 L 365.960938 83.203125 L 364.542969 80.371094 L 363.300781 80.371094 Z M 363.300781 77.476562 L 363.300781 79.738281 L 364.542969 79.738281 C 365.003906 79.738281 365.335938 79.636719 365.542969 79.433594 C 365.746094 79.230469 365.851562 78.960938 365.851562 78.625 C 365.851562 78.414062 365.804688 78.21875 365.71875 78.042969 C 365.628906 77.871094 365.488281 77.730469 365.296875 77.628906 C 365.105469 77.527344 364.855469 77.476562 364.542969 77.476562 Z M 373.148438 83.203125 L 372.417969 83.203125 L 372.417969 77.4375 L 370.601562 77.4375 L 370.601562 76.785156 L 375.042969 76.785156 L 375.042969 77.4375 L 373.148438 77.4375 Z M 379.09375 83.203125 L 379.09375 76.796875 L 379.792969 76.796875 L 382.480469 81.546875 L 382.480469 76.796875 L 383.265625 76.796875 L 383.265625 76.867188 C 383.222656 76.910156 383.195312 76.957031 383.1875 77 C 383.175781 77.050781 383.171875 77.132812 383.171875 77.25 L 383.171875 83.203125 L 382.605469 83.203125 L 379.78125 78.164062 L 379.78125 83.203125 Z M 391.367188 83.203125 L 387.472656 83.203125 L 387.472656 76.785156 L 391.394531 76.785156 L 391.394531 77.421875 L 388.148438 77.421875 L 388.148438 79.53125 L 390.828125 79.53125 L 390.828125 80.1875 L 388.148438 80.1875 L 388.148438 82.558594 L 391.367188 82.558594 Z M 396.457031 83.203125 L 395.730469 83.203125 L 395.730469 76.796875 L 397.617188 76.796875 C 398.125 76.796875 398.535156 76.871094 398.84375 77.023438 C 399.15625 77.175781 399.386719 77.386719 399.53125 77.660156 C 399.671875 77.933594 399.746094 78.257812 399.746094 78.625 C 399.746094 78.867188 399.691406 79.105469 399.589844 79.34375 C 399.480469 79.585938 399.328125 79.796875 399.132812 79.972656 C 398.9375 80.152344 398.707031 80.273438 398.4375 80.34375 L 399.921875 83.203125 L 399.117188 83.203125 L 397.699219 80.371094 L 396.457031 80.371094 Z M 396.457031 77.476562 L 396.457031 79.738281 L 397.699219 79.738281 C 398.160156 79.738281 398.492188 79.636719 398.699219 79.433594 C 398.902344 79.230469 399.007812 78.960938 399.007812 78.625 C 399.007812 78.414062 398.960938 78.21875 398.875 78.042969 C 398.78125 77.871094 398.644531 77.730469 398.453125 77.628906 C 398.261719 77.527344 398.011719 77.476562 397.699219 77.476562 Z M 415.871094 83.203125 L 412.566406 83.203125 L 412.566406 82.59375 L 413.828125 82.59375 L 413.828125 77.402344 L 412.640625 77.402344 L 412.640625 76.796875 L 415.8125 76.796875 L 415.8125 77.402344 L 414.546875 77.402344 L 414.546875 82.605469 L 415.871094 82.605469 Z M 420.539062 83.203125 L 420.539062 76.796875 L 421.234375 76.796875 L 423.929688 81.546875 L 423.929688 76.796875 L 424.707031 76.796875 L 424.707031 76.867188 C 424.667969 76.910156 424.640625 76.957031 424.628906 77 C 424.621094 77.050781 424.613281 77.132812 424.613281 77.25 L 424.613281 83.203125 L 424.050781 83.203125 L 421.222656 78.164062 L 421.222656 83.203125 Z M 441.105469 83.203125 L 437.210938 83.203125 L 437.210938 76.785156 L 441.132812 76.785156 L 441.132812 77.421875 L 437.886719 77.421875 L 437.886719 79.53125 L 440.570312 79.53125 L 440.570312 80.1875 L 437.886719 80.1875 L 437.886719 82.558594 L 441.105469 82.558594 Z M 447.660156 83.242188 L 447.328125 83.242188 L 445.148438 76.785156 L 445.898438 76.785156 L 447.542969 81.707031 L 449.097656 76.796875 L 449.800781 76.796875 Z M 457.683594 83.203125 L 453.789062 83.203125 L 453.789062 76.785156 L 457.710938 76.785156 L 457.710938 77.421875 L 454.46875 77.421875 L 454.46875 79.53125 L 457.148438 79.53125 L 457.148438 80.1875 L 454.46875 80.1875 L 454.46875 82.558594 L 457.683594 82.558594 Z M 462.78125 83.203125 L 462.050781 83.203125 L 462.050781 76.796875 L 463.9375 76.796875 C 464.445312 76.796875 464.851562 76.871094 465.167969 77.023438 C 465.480469 77.175781 465.707031 77.386719 465.851562 77.660156 C 465.996094 77.933594 466.066406 78.257812 466.066406 78.625 C 466.066406 78.867188 466.011719 79.105469 465.90625 79.34375 C 465.800781 79.585938 465.652344 79.796875 465.453125 79.972656 C 465.257812 80.152344 465.027344 80.273438 464.761719 80.34375 L 466.238281 83.203125 L 465.441406 83.203125 L 464.023438 80.371094 L 462.78125 80.371094 Z M 462.78125 77.476562 L 462.78125 79.738281 L 464.023438 79.738281 C 464.480469 79.738281 464.8125 79.636719 465.019531 79.433594 C 465.226562 79.230469 465.328125 78.960938 465.328125 78.625 C 465.328125 78.414062 465.28125 78.21875 465.191406 78.042969 C 465.101562 77.871094 464.960938 77.730469 464.769531 77.628906 C 464.578125 77.527344 464.328125 77.476562 464.023438 77.476562 Z M 472.800781 83.203125 L 472.023438 83.203125 L 472.023438 80.671875 L 470.054688 76.796875 L 470.875 76.796875 L 472.445312 79.902344 L 473.863281 76.796875 L 474.621094 76.796875 L 472.800781 80.671875 Z M 489.277344 83.300781 C 488.929688 83.300781 488.601562 83.234375 488.300781 83.109375 C 488 82.980469 487.734375 82.785156 487.503906 82.515625 C 487.273438 82.25 487.09375 81.910156 486.964844 81.5 C 486.832031 81.085938 486.769531 80.597656 486.769531 80.03125 C 486.769531 79.53125 486.816406 79.09375 486.914062 78.71875 C 487.007812 78.347656 487.136719 78.035156 487.300781 77.777344 C 487.46875 77.523438 487.65625 77.320312 487.867188 77.171875 C 488.082031 77.023438 488.300781 76.914062 488.535156 76.84375 C 488.769531 76.777344 489.003906 76.742188 489.234375 76.742188 C 489.699219 76.742188 490.097656 76.855469 490.425781 77.082031 C 490.757812 77.316406 491.003906 77.621094 491.164062 78.003906 L 490.550781 78.292969 L 490.457031 78.332031 L 490.425781 78.261719 C 490.445312 78.207031 490.445312 78.15625 490.425781 78.113281 C 490.40625 78.070312 490.371094 78 490.316406 77.902344 C 490.140625 77.667969 489.964844 77.515625 489.785156 77.4375 C 489.605469 77.355469 489.414062 77.3125 489.214844 77.3125 C 488.945312 77.3125 488.707031 77.375 488.488281 77.496094 C 488.273438 77.617188 488.089844 77.789062 487.9375 78.019531 C 487.78125 78.25 487.664062 78.527344 487.585938 78.855469 C 487.507812 79.183594 487.46875 79.558594 487.46875 79.976562 C 487.46875 80.378906 487.511719 80.746094 487.605469 81.078125 C 487.699219 81.40625 487.828125 81.691406 487.984375 81.929688 C 488.144531 82.171875 488.335938 82.355469 488.554688 82.488281 C 488.769531 82.617188 489 82.683594 489.242188 82.683594 C 489.417969 82.683594 489.582031 82.652344 489.742188 82.589844 C 489.90625 82.527344 490.054688 82.4375 490.191406 82.316406 C 490.328125 82.195312 490.445312 82.054688 490.539062 81.898438 L 491.074219 82.246094 C 490.867188 82.589844 490.621094 82.851562 490.335938 83.03125 C 490.046875 83.210938 489.695312 83.300781 489.277344 83.300781 M 498.140625 80.769531 L 498.308594 81.320312 L 495.984375 81.320312 L 496.125 80.769531 Z M 498.871094 83.195312 L 497.199219 78.320312 L 495.507812 83.195312 L 494.800781 83.195312 L 497.164062 76.679688 L 497.246094 76.679688 L 499.609375 83.195312 Z M 503.605469 83.203125 L 503.605469 76.796875 L 504.445312 76.796875 L 504.445312 76.867188 C 504.40625 76.910156 504.382812 76.957031 504.375 77 C 504.359375 77.050781 504.355469 77.132812 504.355469 77.25 L 504.355469 82.585938 L 507.4375 82.585938 L 507.4375 83.203125 Z M 511.898438 83.203125 L 511.898438 76.796875 L 512.738281 76.796875 L 512.738281 76.867188 C 512.695312 76.910156 512.667969 76.957031 512.660156 77 C 512.648438 77.050781 512.644531 77.132812 512.644531 77.25 L 512.644531 82.585938 L 515.726562 82.585938 L 515.726562 83.203125 Z M 521.949219 83.308594 C 521.78125 83.308594 521.644531 83.25 521.527344 83.132812 C 521.410156 83.015625 521.351562 82.878906 521.351562 82.722656 C 521.351562 82.566406 521.410156 82.429688 521.527344 82.3125 C 521.644531 82.191406 521.78125 82.132812 521.949219 82.132812 C 522.105469 82.132812 522.242188 82.191406 522.359375 82.3125 C 522.472656 82.429688 522.53125 82.566406 522.53125 82.722656 C 522.53125 82.878906 522.472656 83.015625 522.359375 83.132812 C 522.242188 83.25 522.105469 83.308594 521.949219 83.308594 "/>
</g>
</svg>
