<svg xmlns="http://www.w3.org/2000/svg" xml:space="preserve" width="1500" height="1500" data-id="lg_CMqOIGLsUggiCRsQ2o" data-version="1" viewBox="0 0 1500 1500"><path fill="#fff" stroke="transparent" d="M0 0h1500v1500H0z"/><g data-padding="20"><g transform="translate(-243.289 -253.594)scale(1.30625)"><rect width="560" height="148.03" x="79.914" y="410.843" fill="none" rx="0" ry="0" transform="translate(400.5 271.08)"/><path fill="#e07a5f" d="M514.784 797.088h-16.37v-81.87h49.12v16.37h16.38v16.38h-16.38v32.75h16.38v16.37h-16.38v-16.37h-16.37v-16.38h-16.38Zm0-65.5v16.38h32.1v-16.38Zm131 65.5h-32.75v-16.37h-16.37v-49.13h16.37v-16.37h32.75v16.37h16.38v49.13h-16.38Zm-32.75-64.84v47.81h32.75v-47.81Zm131 64.84h-49.12v-81.87h16.37v65.5h32.75Z"/><path d="M793.164 797.088h-16.38v-81.87h16.38v16.37h16.37v16.38h16.38v16.37h16.37v-49.12h16.38v81.87h-16.38v-16.37h-16.37v-16.38h-16.38v-16.37h-16.37Zm147.37 0h-49.12v-81.87h49.12v16.37h-32.75v16.38h32.75v16.37h-32.75v16.38h32.75Zm81.89 0h-49.13v-81.87h16.38v65.5h32.75Z"/><rect width="745.089" height="23.73" x="-12.631" y="472.993" fill="none" rx="0" ry="0" transform="translate(400.5 357.96)"/><path fill="#3d405b" d="M481.754 849.428h-1.6v-5.17l-4.03-7.92h1.68l3.21 6.35 2.9-6.35h1.55l-3.71 7.92Zm15.98.22q-1.49 0-2.54-.78t-1.6-2.28q-.54-1.5-.54-3.64 0-2.08.54-3.58.55-1.5 1.6-2.31t2.54-.81q1.51 0 2.55.81t1.59 2.31q.54 1.5.54 3.58 0 2.14-.54 3.64-.55 1.5-1.59 2.28t-2.55.78m0-1.28q1.01 0 1.71-.63t1.08-1.84.38-2.95q0-1.66-.38-2.87t-1.08-1.88-1.71-.67q-.99 0-1.7.67-.72.67-1.09 1.88-.38 1.21-.38 2.87 0 1.74.38 2.95.37 1.21 1.09 1.84.71.63 1.7.63m16.97 1.28q-2.1 0-3.16-1.25t-1.06-3.5v-8.57h1.63v.15q-.12.13-.15.27-.04.15-.04.51v7.66q0 1.6.62 2.54.62.95 2.18.95 1.57 0 2.2-.95.63-.94.63-2.6v-8.53h1.41v8.51q0 1.66-.53 2.72-.52 1.06-1.48 1.57-.95.52-2.25.52m14.34-.22h-1.49v-13.09h3.86q1.56 0 2.51.47.96.46 1.4 1.3t.44 1.97q0 .74-.33 1.47-.32.74-.92 1.28-.6.55-1.42.76l3.03 5.84h-1.64l-2.9-5.78h-2.54Zm0-11.7v4.62h2.54q1.41 0 2.04-.62t.63-1.65q0-.65-.28-1.19-.27-.53-.86-.85-.58-.31-1.53-.31Zm37.09 11.7h-1.5v-11.78h-3.71v-1.33h9.07v1.33h-3.86Zm13.76 0h-1.49v-13.09h3.86q1.56 0 2.51.47.96.46 1.4 1.3t.44 1.97q0 .74-.32 1.47-.33.74-.93 1.28-.6.55-1.42.76l3.03 5.84h-1.64l-2.9-5.78h-2.54Zm0-11.7v4.62h2.54q1.41 0 2.04-.62t.63-1.65q0-.65-.27-1.19-.28-.53-.87-.85-.58-.31-1.53-.31Zm19.54 11.92q-2.1 0-3.16-1.25t-1.06-3.5v-8.57h1.64v.15q-.13.13-.16.27-.03.15-.03.51v7.66q0 1.6.62 2.54.62.95 2.17.95 1.58 0 2.21-.95.63-.94.63-2.6v-8.53h1.4v8.51q0 1.66-.52 2.72-.53 1.06-1.48 1.57-.96.52-2.26.52m16.86-.02q-1.28 0-2.29-.42-1.02-.42-1.8-1.24l.76-1.33.08-.18.15.08q.04.15.1.32.06.18.3.44.54.46 1.27.73.72.27 1.64.27.59 0 1.09-.18.49-.17.86-.48.36-.3.56-.71t.2-.87q0-.36-.07-.65-.07-.3-.27-.54t-.54-.48q-.33-.24-.86-.52-.52-.27-1.26-.59-1.36-.52-2.15-1.14t-1.11-1.31q-.33-.7-.33-1.43 0-.97.48-1.69.49-.73 1.38-1.14.89-.4 2.13-.4.71 0 1.38.19.66.2 1.23.56.58.36 1.02.88l-.82 1.1-.12.16-.13-.08q-.02-.17-.08-.34-.07-.16-.3-.42-.5-.48-1.07-.66-.56-.18-1.34-.18-.53 0-.94.15t-.7.42-.45.62-.16.72q0 .36.09.66.08.29.29.56.21.28.58.55.36.27.92.54.56.28 1.36.59.96.4 1.6.79t1.01.82.53.93q.15.51.15 1.12 0 .9-.45 1.77t-1.42 1.44q-.96.57-2.5.57m17.62-.2h-1.49v-11.78h-3.71v-1.33h9.07v1.33h-3.87Zm20.29 0h-7.96v-13.11h8.02v1.3h-6.63v4.31h5.48v1.34h-5.48v4.85h6.57Zm11.68.02h-2.8v-13.11h3.05q1.13 0 1.91.21t1.32.6q.55.39.97.98.44.59.72 1.32.29.74.42 1.61.14.87.14 1.9-.06 1.51-.4 2.71-.34 1.19-1.01 2.03t-1.73 1.3q-1.06.45-2.59.45m-1.41-11.87v10.71h1.34q1.51 0 2.47-.61t1.42-1.78q.46-1.18.44-2.86 0-1.72-.42-2.94t-1.31-1.87q-.9-.65-2.37-.65Zm34.12 11.85h-1.51v-13.09h4.2q1.47 0 2.37.51.91.5 1.34 1.33t.43 1.86q0 .76-.23 1.41t-.73 1.15q-.49.51-1.25.78-.75.27-1.82.27h-2.8Zm0-11.7v4.62h2.63q.96 0 1.55-.28.59-.29.86-.8.28-.52.28-1.19 0-.65-.28-1.17-.27-.53-.86-.86-.59-.32-1.53-.32Zm21.36 6.73.34 1.13h-4.75l.29-1.13Zm1.49 4.96-3.42-9.96-3.45 9.96h-1.44l4.83-13.32h.16l4.83 13.32Zm10.97.01h-1.49v-13.09h3.87q1.55 0 2.51.47.95.46 1.39 1.3t.44 1.97q0 .74-.32 1.47-.33.74-.93 1.28-.59.55-1.41.76l3.02 5.84h-1.64l-2.9-5.78h-2.54Zm0-11.7v4.62h2.54q1.41 0 2.04-.62t.63-1.65q0-.65-.27-1.19-.27-.53-.86-.85-.59-.31-1.54-.31Zm20.13 11.7h-1.49v-11.78h-3.72v-1.33h9.08v1.33h-3.87Zm12.15 0v-13.09h1.43l5.5 9.71v-9.71h1.6v.15q-.13.13-.16.27-.03.15-.03.51v12.16h-1.16l-5.77-10.29v10.29Zm25.09 0h-7.96v-13.11h8.02v1.3h-6.64v4.31h5.48v1.34h-5.48v4.85h6.58Zm10.41 0h-1.49v-13.09h3.86q1.56 0 2.51.47.96.46 1.4 1.3t.44 1.97q0 .74-.32 1.47-.33.74-.93 1.28-.6.55-1.42.76l3.03 5.84h-1.64l-2.9-5.78h-2.54Zm0-11.7v4.62h2.54q1.41 0 2.04-.62t.63-1.65q0-.65-.27-1.19-.28-.53-.86-.85-.59-.31-1.54-.31Zm39.69 11.7h-6.76v-1.24h2.58v-10.61h-2.43v-1.24h6.49v1.24h-2.59v10.63h2.71Zm9.54 0v-13.09h1.42l5.51 9.71v-9.71h1.59v.15q-.12.13-.16.27-.03.15-.03.51v12.16h-1.15l-5.78-10.29v10.29Zm42.04 0h-7.96v-13.11h8.02v1.3h-6.64v4.31h5.49v1.34h-5.49v4.85h6.58Zm13.4.08h-.68l-4.45-13.19h1.53l3.36 10.06 3.18-10.04h1.44Zm20.49-.08h-7.96v-13.11h8.02v1.3h-6.63v4.31h5.48v1.34h-5.48v4.85h6.57Zm10.42 0h-1.49v-13.09h3.86q1.55 0 2.51.47.96.46 1.4 1.3t.44 1.97q0 .74-.33 1.47-.32.74-.92 1.28-.6.55-1.42.76l3.02 5.84h-1.63l-2.9-5.78h-2.54Zm0-11.7v4.62h2.54q1.41 0 2.04-.62t.63-1.65q0-.65-.28-1.19-.27-.53-.86-.85-.59-.31-1.53-.31Zm20.49 11.7h-1.59v-5.17l-4.03-7.92h1.68l3.21 6.35 2.9-6.35h1.55l-3.72 7.92Zm33.68.2q-1.07 0-2-.39-.92-.39-1.63-1.21-.7-.82-1.1-2.08t-.4-3q0-1.53.3-2.68.29-1.14.79-1.92.51-.78 1.16-1.24t1.36-.67q.72-.21 1.43-.21 1.43 0 2.44.7 1.01.71 1.51 1.88l-1.26.59-.19.08-.06-.14q.06-.17 0-.31-.06-.13-.23-.43-.53-.71-1.08-.95-.56-.25-1.17-.25-.82 0-1.48.37t-1.13 1.07q-.48.71-.72 1.71-.24 1.01-.24 2.29 0 1.24.28 2.25.29 1.01.78 1.74.49.74 1.16 1.14.66.4 1.41.4.53 0 1.02-.19.5-.19.92-.56t.71-.85l1.09.71q-.63 1.05-1.51 1.6t-2.16.55m18.12-5.17.34 1.13h-4.75l.29-1.13Zm1.49 4.96-3.42-9.96-3.45 9.96h-1.45l4.83-13.32h.17l4.83 13.32Zm9.68.01v-13.09h1.72v.15q-.12.13-.15.27-.04.15-.04.51v10.9h6.3v1.26Zm16.95 0v-13.09h1.72v.15q-.13.13-.16.27-.03.15-.03.51v10.9h6.3v1.26Zm20.55.22q-.51 0-.86-.36-.36-.36-.36-.84t.36-.84q.35-.36.86-.36.48 0 .84.36.35.36.35.84t-.35.84q-.36.36-.84.36"/></g><path fill="transparent" stroke="transparent" stroke-width="1.342" d="M250 633.893h1000v232.214H250z"/></g></svg>